<svg width="91" height="40" viewBox="0 0 91 40" fill="none" xmlns="http://www.w3.org/2000/svg">
<rect x="7.70412" y="11.2251" width="21.5434" height="23.3735" rx="2.82686" transform="rotate(0.74855 7.70412 11.2251)" fill="#9BD293" stroke="#407E59" stroke-width="0.484605"/>
<path d="M25.4538 31.1549C28.3686 27.2925 28.9708 13.9893 28.9708 13.9893L28.7348 32.0501C28.7161 33.4774 27.544 34.6193 26.1167 34.6007L10.1744 34.3924C10.1744 34.3924 22.539 35.0172 25.4538 31.1549Z" fill="#89C789"/>
<path d="M18.3235 5.50367C19.8474 5.16535 21.3573 6.12685 21.6958 7.65079L25.5486 24.9972C25.887 26.5212 24.9255 28.031 23.4015 28.3695L7.95337 31.8007C6.42928 32.1392 4.91859 31.1779 4.58009 29.6538L0.72726 12.3074C0.389059 10.7835 1.3505 9.27363 2.87438 8.93512L18.3235 5.50367Z" fill="#FCFAF2" stroke="#407E59" stroke-width="0.484605"/>
<path d="M22.868 24.8478C24.8276 20.4555 21.4168 7.45934 21.4168 7.45934L25.323 25.0471C25.6325 26.4406 24.7537 27.8211 23.3603 28.1306L7.8956 31.5652C7.8956 31.5652 20.9085 29.2401 22.868 24.8478Z" fill="#F7F0E9"/>
<path d="M38.9756 28C38.789 28 38.6956 27.9133 38.6956 27.74C38.6956 27.5267 38.789 27.42 38.9756 27.42C39.6956 27.42 40.189 27.3333 40.4556 27.16C40.7223 26.9867 40.8556 26.6733 40.8556 26.22V15.2C40.8556 14.8133 40.749 14.5267 40.5356 14.34C40.3356 14.14 39.869 14.04 39.1356 14.04C38.9623 14.04 38.8756 13.9333 38.8756 13.72C38.8756 13.5467 38.9623 13.46 39.1356 13.46C39.2556 13.46 39.5956 13.4667 40.1556 13.48C40.7156 13.4933 41.3556 13.5 42.0756 13.5C42.5556 13.5 43.009 13.5 43.4356 13.5C43.8623 13.4867 44.2223 13.48 44.5156 13.48C44.8223 13.4667 45.009 13.46 45.0756 13.46C45.2623 13.46 45.3556 13.5467 45.3556 13.72C45.3556 13.9333 45.2623 14.04 45.0756 14.04C44.3423 14.04 43.8556 14.14 43.6156 14.34C43.389 14.5267 43.2756 14.8133 43.2756 15.2V26.98C43.2756 27.2467 43.4156 27.38 43.6956 27.38H46.7956C47.449 27.38 48.0223 27.1933 48.5156 26.82C49.0223 26.4467 49.449 25.9867 49.7956 25.44C50.1556 24.88 50.4356 24.3333 50.6356 23.8C50.6756 23.6933 50.729 23.6267 50.7956 23.6C50.8623 23.56 50.9223 23.5467 50.9756 23.56C51.0823 23.5733 51.149 23.6133 51.1756 23.68C51.2023 23.7333 51.2156 23.7933 51.2156 23.86C51.2156 23.9 51.2156 24.0667 51.2156 24.36C51.2156 24.6533 51.209 25.0067 51.1956 25.42C51.1956 25.82 51.189 26.2067 51.1756 26.58C51.1756 26.9533 51.169 27.2333 51.1556 27.42C51.1423 27.5933 51.089 27.7333 50.9956 27.84C50.9023 27.9467 50.7623 28 50.5756 28C50.4823 28 50.2356 28 49.8356 28C49.4356 27.9867 48.8356 27.98 48.0356 27.98C47.2356 27.98 46.1756 27.98 44.8556 27.98C43.7623 27.98 42.789 27.98 41.9356 27.98C41.0823 27.98 40.3956 27.9867 39.8756 28C39.369 28 39.069 28 38.9756 28ZM57.3475 28.24C55.8275 28.24 54.6342 27.8267 53.7675 27C52.9142 26.1733 52.4875 24.9867 52.4875 23.44C52.4875 22.4667 52.6808 21.5933 53.0675 20.82C53.4542 20.0467 54.0008 19.4333 54.7075 18.98C55.4275 18.5267 56.2608 18.3 57.2075 18.3C57.9275 18.3 58.5542 18.44 59.0875 18.72C59.6208 19 60.0608 19.3667 60.4075 19.82C60.7542 20.2733 61.0142 20.7667 61.1875 21.3C61.3608 21.82 61.4475 22.3333 61.4475 22.84C61.4475 23.0533 61.3142 23.16 61.0475 23.16H54.8475C54.8208 24.1733 54.9075 24.9667 55.1075 25.54C55.3208 26.1133 55.6342 26.5133 56.0475 26.74C56.4608 26.9667 56.9608 27.08 57.5475 27.08C58.2275 27.08 58.8342 26.9333 59.3675 26.64C59.9142 26.3467 60.3608 25.98 60.7075 25.54C60.8542 25.3667 61.0208 25.34 61.2075 25.46C61.3942 25.58 61.4208 25.74 61.2875 25.94C61.0208 26.34 60.7142 26.7133 60.3675 27.06C60.0342 27.4067 59.6208 27.6933 59.1275 27.92C58.6475 28.1333 58.0542 28.24 57.3475 28.24ZM54.8875 22.38H59.0475C59.0742 21.74 59.0275 21.1667 58.9075 20.66C58.8008 20.1533 58.6075 19.7533 58.3275 19.46C58.0608 19.1667 57.6742 19.02 57.1675 19.02C56.5275 19.02 56.0275 19.3267 55.6675 19.94C55.3075 20.54 55.0475 21.3533 54.8875 22.38ZM62.8539 28C62.6539 28 62.5539 27.8867 62.5539 27.66C62.5539 27.4467 62.6539 27.34 62.8539 27.34C63.1739 27.34 63.5206 27.24 63.8939 27.04C64.2806 26.84 64.6472 26.5133 64.9939 26.06C65.4339 25.4733 65.7739 25.0267 66.0139 24.72C66.2539 24.4 66.4272 24.16 66.5339 24C66.6539 23.8267 66.7539 23.6867 66.8339 23.58C66.8206 23.5667 66.7406 23.4667 66.5939 23.28C66.4606 23.0933 66.2872 22.8667 66.0739 22.6C65.8739 22.32 65.6672 22.04 65.4539 21.76C65.2539 21.48 65.0739 21.2333 64.9139 21.02C64.7539 20.8067 64.6539 20.6733 64.6139 20.62C64.3206 20.2333 64.0406 19.9 63.7739 19.62C63.5072 19.34 63.2206 19.2 62.9139 19.2C62.7006 19.2 62.5939 19.0867 62.5939 18.86C62.5939 18.6467 62.7006 18.54 62.9139 18.54C63.0606 18.54 63.3206 18.5533 63.6939 18.58C64.0672 18.5933 64.4206 18.6 64.7539 18.6C64.9939 18.6 65.2472 18.5933 65.5139 18.58C65.7939 18.5667 66.0539 18.56 66.2939 18.56C66.5339 18.5467 66.7006 18.54 66.7939 18.54C66.9939 18.54 67.0939 18.6467 67.0939 18.86C67.0939 19.0867 66.9939 19.2 66.7939 19.2C66.6206 19.2 66.5206 19.26 66.4939 19.38C66.4672 19.5 66.5006 19.6333 66.5939 19.78L68.1339 21.84C68.3872 21.5067 68.6006 21.2267 68.7739 21C68.9472 20.76 69.1006 20.5533 69.2339 20.38C69.4739 20.0733 69.5539 19.8 69.4739 19.56C69.3939 19.32 69.1339 19.2 68.6939 19.2C68.4806 19.2 68.3739 19.0867 68.3739 18.86C68.3739 18.6467 68.4806 18.54 68.6939 18.54C68.8406 18.54 69.0672 18.5533 69.3739 18.58C69.6806 18.5933 70.0072 18.6 70.3539 18.6C70.7006 18.6 71.0272 18.5933 71.3339 18.58C71.6539 18.5533 71.8806 18.54 72.0139 18.54C72.2272 18.54 72.3339 18.6467 72.3339 18.86C72.3339 19.0867 72.2272 19.2 72.0139 19.2C71.7072 19.2 71.3606 19.34 70.9739 19.62C70.5872 19.8867 70.2406 20.22 69.9339 20.62C69.8539 20.7133 69.7339 20.8733 69.5739 21.1C69.4139 21.3133 69.2406 21.5467 69.0539 21.8C68.8806 22.04 68.7139 22.2533 68.5539 22.44C68.6606 22.6 68.8406 22.8533 69.0939 23.2C69.3472 23.5333 69.6139 23.8933 69.8939 24.28C70.1872 24.6533 70.4472 24.9933 70.6739 25.3C70.9139 25.5933 71.0606 25.78 71.1139 25.86C71.4606 26.3133 71.7806 26.6733 72.0739 26.94C72.3806 27.2067 72.6406 27.34 72.8539 27.34C73.0672 27.34 73.1739 27.4467 73.1739 27.66C73.1739 27.8867 73.0672 28 72.8539 28C72.7606 28 72.5872 27.9933 72.3339 27.98C72.0939 27.9667 71.8272 27.96 71.5339 27.96C71.2406 27.9467 70.9739 27.94 70.7339 27.94C70.3872 27.94 70.0072 27.9533 69.5939 27.98C69.1806 27.9933 68.9006 28 68.7539 28C68.5539 28 68.4539 27.8867 68.4539 27.66C68.4539 27.4467 68.5539 27.34 68.7539 27.34C69.0072 27.34 69.1472 27.26 69.1739 27.1C69.2006 26.94 69.1606 26.7733 69.0539 26.6C69.0139 26.5333 68.9006 26.38 68.7139 26.14C68.5272 25.8867 68.3206 25.6133 68.0939 25.32C67.8806 25.0267 67.6872 24.7667 67.5139 24.54C67.3539 24.3133 67.2672 24.1867 67.2539 24.16C67.2406 24.1867 67.1739 24.28 67.0539 24.44C66.9472 24.6 66.8139 24.7867 66.6539 25C66.5072 25.2 66.3672 25.3933 66.2339 25.58C66.1006 25.7533 66.0139 25.8733 65.9739 25.94C65.7339 26.3 65.6739 26.6267 65.7939 26.92C65.9272 27.2 66.2206 27.34 66.6739 27.34C66.8872 27.34 66.9939 27.4467 66.9939 27.66C66.9939 27.8867 66.8872 28 66.6739 28C66.5272 28 66.2539 27.9933 65.8539 27.98C65.4539 27.9533 65.0806 27.94 64.7339 27.94C64.3872 27.94 64.0206 27.9533 63.6339 27.98C63.2606 27.9933 63.0006 28 62.8539 28ZM74.5048 28C74.2915 28 74.1848 27.8933 74.1848 27.68C74.1848 27.4533 74.2915 27.34 74.5048 27.34C75.0115 27.34 75.3515 27.2333 75.5248 27.02C75.6982 26.8067 75.7848 26.46 75.7848 25.98V20.3C75.7848 19.9267 75.7448 19.68 75.6648 19.56C75.5982 19.4267 75.4715 19.3533 75.2848 19.34C75.1915 19.3267 75.0315 19.3133 74.8048 19.3C74.5915 19.2733 74.4382 19.2533 74.3448 19.24C74.1582 19.2 74.0648 19.0867 74.0648 18.9C74.0648 18.6867 74.1648 18.58 74.3648 18.58C74.4048 18.58 74.5715 18.58 74.8648 18.58C75.1582 18.5667 75.4848 18.56 75.8448 18.56C76.2182 18.56 76.5582 18.56 76.8648 18.56C77.1715 18.5467 77.3648 18.54 77.4448 18.54C77.7782 18.54 77.9448 18.6933 77.9448 19V25.98C77.9448 26.46 78.0248 26.8067 78.1848 27.02C78.3448 27.2333 78.6382 27.34 79.0648 27.34C79.2648 27.34 79.3648 27.4533 79.3648 27.68C79.3648 27.8933 79.2648 28 79.0648 28C78.9715 28 78.7915 27.9933 78.5248 27.98C78.2582 27.9667 77.9715 27.96 77.6648 27.96C77.3582 27.9467 77.0848 27.94 76.8448 27.94C76.6182 27.94 76.3382 27.9467 76.0048 27.96C75.6715 27.96 75.3582 27.9667 75.0648 27.98C74.7848 27.9933 74.5982 28 74.5048 28ZM76.7048 16.36C76.3048 16.36 75.9648 16.22 75.6848 15.94C75.4048 15.66 75.2648 15.32 75.2648 14.92C75.2648 14.52 75.4048 14.18 75.6848 13.9C75.9648 13.62 76.3048 13.48 76.7048 13.48C77.1048 13.48 77.4448 13.62 77.7248 13.9C78.0048 14.18 78.1448 14.52 78.1448 14.92C78.1448 15.32 78.0048 15.66 77.7248 15.94C77.4448 16.22 77.1048 16.36 76.7048 16.36ZM85.4888 28.24C84.5288 28.24 83.6954 28.0267 82.9888 27.6C82.2821 27.16 81.7354 26.5667 81.3488 25.82C80.9621 25.0733 80.7688 24.22 80.7688 23.26C80.7688 22.3 80.9621 21.4467 81.3488 20.7C81.7354 19.9533 82.2821 19.3667 82.9888 18.94C83.6954 18.5133 84.5288 18.3 85.4888 18.3C86.4488 18.3 87.2754 18.5133 87.9688 18.94C88.6754 19.3667 89.2221 19.9533 89.6088 20.7C89.9954 21.4467 90.1888 22.3 90.1888 23.26C90.1888 24.22 89.9954 25.0733 89.6088 25.82C89.2221 26.5667 88.6754 27.16 87.9688 27.6C87.2754 28.0267 86.4488 28.24 85.4888 28.24ZM85.4888 27.56C86.3154 27.56 86.9088 27.1667 87.2688 26.38C87.6421 25.58 87.8288 24.54 87.8288 23.26C87.8288 21.9933 87.6421 20.9667 87.2688 20.18C86.9088 19.38 86.3154 18.98 85.4888 18.98C84.6621 18.98 84.0621 19.38 83.6888 20.18C83.3154 20.9667 83.1288 21.9933 83.1288 23.26C83.1288 24.54 83.3154 25.58 83.6888 26.38C84.0621 27.1667 84.6621 27.56 85.4888 27.56Z" fill="#7A7C79"/>
</svg>
