<svg width="87" height="40" viewBox="0 0 87 40" fill="none" xmlns="http://www.w3.org/2000/svg">
<rect x="7.704" y="11.2251" width="21.5434" height="23.3735" rx="2.82686" transform="rotate(0.74855 7.704 11.2251)" fill="#9BD293" stroke="#407E59" stroke-width="0.484605"/>
<path d="M25.4537 31.1549C28.3685 27.2926 28.9706 13.9893 28.9706 13.9893L28.7347 32.0501C28.716 33.4774 27.5438 34.6193 26.1166 34.6007L10.1742 34.3924C10.1742 34.3924 22.5389 35.0172 25.4537 31.1549Z" fill="#89C789"/>
<path d="M18.3235 5.50369C19.8474 5.16537 21.3573 6.12686 21.6958 7.65081L25.5486 24.9972C25.887 26.5212 24.9255 28.031 23.4015 28.3695L7.95337 31.8007C6.42928 32.1392 4.91859 31.1779 4.58009 29.6538L0.72726 12.3075C0.389059 10.7836 1.3505 9.27365 2.87438 8.93513L18.3235 5.50369Z" fill="#FCFAF2" stroke="#407E59" stroke-width="0.484605"/>
<path d="M23.0291 25.0037C24.8857 20.8422 21.6542 8.52888 21.6542 8.52888L25.3257 25.0601C25.6351 26.4535 24.7564 27.834 23.3629 28.1435L8.84334 31.3682C8.84334 31.3682 21.1726 29.1653 23.0291 25.0037Z" fill="#F7F0E9"/>
<path d="M38.0281 28C37.8601 28 37.7761 27.922 37.7761 27.766C37.7761 27.574 37.8601 27.478 38.0281 27.478C38.6761 27.478 39.1201 27.4 39.3601 27.244C39.6001 27.088 39.7201 26.806 39.7201 26.398V16.48C39.7201 16.132 39.6241 15.874 39.4321 15.706C39.2521 15.526 38.8321 15.436 38.1721 15.436C38.0161 15.436 37.9381 15.34 37.9381 15.148C37.9381 14.992 38.0161 14.914 38.1721 14.914C38.2801 14.914 38.5861 14.92 39.0901 14.932C39.5941 14.944 40.1701 14.95 40.8181 14.95C41.2501 14.95 41.6581 14.95 42.0421 14.95C42.4261 14.938 42.7501 14.932 43.0141 14.932C43.2901 14.92 43.4581 14.914 43.5181 14.914C43.6861 14.914 43.7701 14.992 43.7701 15.148C43.7701 15.34 43.6861 15.436 43.5181 15.436C42.8581 15.436 42.4201 15.526 42.2041 15.706C42.0001 15.874 41.8981 16.132 41.8981 16.48V27.082C41.8981 27.322 42.0241 27.442 42.2761 27.442H45.0661C45.6541 27.442 46.1701 27.274 46.6141 26.938C47.0701 26.602 47.4541 26.188 47.7661 25.696C48.0901 25.192 48.3421 24.7 48.5221 24.22C48.5581 24.124 48.6061 24.064 48.6661 24.04C48.7261 24.004 48.7801 23.992 48.8281 24.004C48.9241 24.016 48.9841 24.052 49.0081 24.112C49.0321 24.16 49.0441 24.214 49.0441 24.274C49.0441 24.31 49.0441 24.46 49.0441 24.724C49.0441 24.988 49.0381 25.306 49.0261 25.678C49.0261 26.038 49.0201 26.386 49.0081 26.722C49.0081 27.058 49.0021 27.31 48.9901 27.478C48.9781 27.634 48.9301 27.76 48.8461 27.856C48.7621 27.952 48.6361 28 48.4681 28C48.3841 28 48.1621 28 47.8021 28C47.4421 27.988 46.9021 27.982 46.1821 27.982C45.4621 27.982 44.5081 27.982 43.3201 27.982C42.3361 27.982 41.4601 27.982 40.6921 27.982C39.9241 27.982 39.3061 27.988 38.8381 28C38.3821 28 38.1121 28 38.0281 28ZM54.5628 28.216C53.1948 28.216 52.1208 27.844 51.3408 27.1C50.5728 26.356 50.1888 25.288 50.1888 23.896C50.1888 23.02 50.3628 22.234 50.7108 21.538C51.0588 20.842 51.5508 20.29 52.1868 19.882C52.8348 19.474 53.5848 19.27 54.4368 19.27C55.0848 19.27 55.6488 19.396 56.1288 19.648C56.6088 19.9 57.0048 20.23 57.3168 20.638C57.6288 21.046 57.8628 21.49 58.0188 21.97C58.1748 22.438 58.2528 22.9 58.2528 23.356C58.2528 23.548 58.1328 23.644 57.8928 23.644H52.3128C52.2888 24.556 52.3668 25.27 52.5468 25.786C52.7388 26.302 53.0208 26.662 53.3928 26.866C53.7648 27.07 54.2148 27.172 54.7428 27.172C55.3548 27.172 55.9008 27.04 56.3808 26.776C56.8728 26.512 57.2748 26.182 57.5868 25.786C57.7188 25.63 57.8688 25.606 58.0368 25.714C58.2048 25.822 58.2288 25.966 58.1088 26.146C57.8688 26.506 57.5928 26.842 57.2808 27.154C56.9808 27.466 56.6088 27.724 56.1648 27.928C55.7328 28.12 55.1988 28.216 54.5628 28.216ZM52.3488 22.942H56.0928C56.1168 22.366 56.0748 21.85 55.9668 21.394C55.8708 20.938 55.6968 20.578 55.4448 20.314C55.2048 20.05 54.8568 19.918 54.4008 19.918C53.8248 19.918 53.3748 20.194 53.0508 20.746C52.7268 21.286 52.4928 22.018 52.3488 22.942ZM59.5185 28C59.3385 28 59.2485 27.898 59.2485 27.694C59.2485 27.502 59.3385 27.406 59.5185 27.406C59.8065 27.406 60.1185 27.316 60.4545 27.136C60.8025 26.956 61.1325 26.662 61.4445 26.254C61.8405 25.726 62.1465 25.324 62.3625 25.048C62.5785 24.76 62.7345 24.544 62.8305 24.4C62.9385 24.244 63.0285 24.118 63.1005 24.022C63.0885 24.01 63.0165 23.92 62.8845 23.752C62.7645 23.584 62.6085 23.38 62.4165 23.14C62.2365 22.888 62.0505 22.636 61.8585 22.384C61.6785 22.132 61.5165 21.91 61.3725 21.718C61.2285 21.526 61.1385 21.406 61.1025 21.358C60.8385 21.01 60.5865 20.71 60.3465 20.458C60.1065 20.206 59.8485 20.08 59.5725 20.08C59.3805 20.08 59.2845 19.978 59.2845 19.774C59.2845 19.582 59.3805 19.486 59.5725 19.486C59.7045 19.486 59.9385 19.498 60.2745 19.522C60.6105 19.534 60.9285 19.54 61.2285 19.54C61.4445 19.54 61.6725 19.534 61.9125 19.522C62.1645 19.51 62.3985 19.504 62.6145 19.504C62.8305 19.492 62.9805 19.486 63.0645 19.486C63.2445 19.486 63.3345 19.582 63.3345 19.774C63.3345 19.978 63.2445 20.08 63.0645 20.08C62.9085 20.08 62.8185 20.134 62.7945 20.242C62.7705 20.35 62.8005 20.47 62.8845 20.602L64.2705 22.456C64.4985 22.156 64.6905 21.904 64.8465 21.7C65.0025 21.484 65.1405 21.298 65.2605 21.142C65.4765 20.866 65.5485 20.62 65.4765 20.404C65.4045 20.188 65.1705 20.08 64.7745 20.08C64.5825 20.08 64.4865 19.978 64.4865 19.774C64.4865 19.582 64.5825 19.486 64.7745 19.486C64.9065 19.486 65.1105 19.498 65.3865 19.522C65.6625 19.534 65.9565 19.54 66.2685 19.54C66.5805 19.54 66.8745 19.534 67.1505 19.522C67.4385 19.498 67.6425 19.486 67.7625 19.486C67.9545 19.486 68.0505 19.582 68.0505 19.774C68.0505 19.978 67.9545 20.08 67.7625 20.08C67.4865 20.08 67.1745 20.206 66.8265 20.458C66.4785 20.698 66.1665 20.998 65.8905 21.358C65.8185 21.442 65.7105 21.586 65.5665 21.79C65.4225 21.982 65.2665 22.192 65.0985 22.42C64.9425 22.636 64.7925 22.828 64.6485 22.996C64.7445 23.14 64.9065 23.368 65.1345 23.68C65.3625 23.98 65.6025 24.304 65.8545 24.652C66.1185 24.988 66.3525 25.294 66.5565 25.57C66.7725 25.834 66.9045 26.002 66.9525 26.074C67.2645 26.482 67.5525 26.806 67.8165 27.046C68.0925 27.286 68.3265 27.406 68.5185 27.406C68.7105 27.406 68.8065 27.502 68.8065 27.694C68.8065 27.898 68.7105 28 68.5185 28C68.4345 28 68.2785 27.994 68.0505 27.982C67.8345 27.97 67.5945 27.964 67.3305 27.964C67.0665 27.952 66.8265 27.946 66.6105 27.946C66.2985 27.946 65.9565 27.958 65.5845 27.982C65.2125 27.994 64.9605 28 64.8285 28C64.6485 28 64.5585 27.898 64.5585 27.694C64.5585 27.502 64.6485 27.406 64.8285 27.406C65.0565 27.406 65.1825 27.334 65.2065 27.19C65.2305 27.046 65.1945 26.896 65.0985 26.74C65.0625 26.68 64.9605 26.542 64.7925 26.326C64.6245 26.098 64.4385 25.852 64.2345 25.588C64.0425 25.324 63.8685 25.09 63.7125 24.886C63.5685 24.682 63.4905 24.568 63.4785 24.544C63.4665 24.568 63.4065 24.652 63.2985 24.796C63.2025 24.94 63.0825 25.108 62.9385 25.3C62.8065 25.48 62.6805 25.654 62.5605 25.822C62.4405 25.978 62.3625 26.086 62.3265 26.146C62.1105 26.47 62.0565 26.764 62.1645 27.028C62.2845 27.28 62.5485 27.406 62.9565 27.406C63.1485 27.406 63.2445 27.502 63.2445 27.694C63.2445 27.898 63.1485 28 62.9565 28C62.8245 28 62.5785 27.994 62.2185 27.982C61.8585 27.958 61.5225 27.946 61.2105 27.946C60.8985 27.946 60.5685 27.958 60.2205 27.982C59.8845 27.994 59.6505 28 59.5185 28ZM70.0044 28C69.8124 28 69.7164 27.904 69.7164 27.712C69.7164 27.508 69.8124 27.406 70.0044 27.406C70.4604 27.406 70.7664 27.31 70.9224 27.118C71.0784 26.926 71.1564 26.614 71.1564 26.182V21.07C71.1564 20.734 71.1204 20.512 71.0484 20.404C70.9884 20.284 70.8744 20.218 70.7064 20.206C70.6224 20.194 70.4784 20.182 70.2744 20.17C70.0824 20.146 69.9444 20.128 69.8604 20.116C69.6924 20.08 69.6084 19.978 69.6084 19.81C69.6084 19.618 69.6984 19.522 69.8784 19.522C69.9144 19.522 70.0644 19.522 70.3284 19.522C70.5924 19.51 70.8864 19.504 71.2104 19.504C71.5464 19.504 71.8524 19.504 72.1284 19.504C72.4044 19.492 72.5784 19.486 72.6504 19.486C72.9504 19.486 73.1004 19.624 73.1004 19.9V26.182C73.1004 26.614 73.1724 26.926 73.3164 27.118C73.4604 27.31 73.7244 27.406 74.1084 27.406C74.2884 27.406 74.3784 27.508 74.3784 27.712C74.3784 27.904 74.2884 28 74.1084 28C74.0244 28 73.8624 27.994 73.6224 27.982C73.3824 27.97 73.1244 27.964 72.8484 27.964C72.5724 27.952 72.3264 27.946 72.1104 27.946C71.9064 27.946 71.6544 27.952 71.3544 27.964C71.0544 27.964 70.7724 27.97 70.5084 27.982C70.2564 27.994 70.0884 28 70.0044 28ZM71.9844 17.524C71.6244 17.524 71.3184 17.398 71.0664 17.146C70.8144 16.894 70.6884 16.588 70.6884 16.228C70.6884 15.868 70.8144 15.562 71.0664 15.31C71.3184 15.058 71.6244 14.932 71.9844 14.932C72.3444 14.932 72.6504 15.058 72.9024 15.31C73.1544 15.562 73.2804 15.868 73.2804 16.228C73.2804 16.588 73.1544 16.894 72.9024 17.146C72.6504 17.398 72.3444 17.524 71.9844 17.524ZM79.8899 28.216C79.0259 28.216 78.2759 28.024 77.6399 27.64C77.0039 27.244 76.5119 26.71 76.1639 26.038C75.8159 25.366 75.6419 24.598 75.6419 23.734C75.6419 22.87 75.8159 22.102 76.1639 21.43C76.5119 20.758 77.0039 20.23 77.6399 19.846C78.2759 19.462 79.0259 19.27 79.8899 19.27C80.7539 19.27 81.4979 19.462 82.1219 19.846C82.7579 20.23 83.2499 20.758 83.5979 21.43C83.9459 22.102 84.1199 22.87 84.1199 23.734C84.1199 24.598 83.9459 25.366 83.5979 26.038C83.2499 26.71 82.7579 27.244 82.1219 27.64C81.4979 28.024 80.7539 28.216 79.8899 28.216ZM79.8899 27.604C80.6339 27.604 81.1679 27.25 81.4919 26.542C81.8279 25.822 81.9959 24.886 81.9959 23.734C81.9959 22.594 81.8279 21.67 81.4919 20.962C81.1679 20.242 80.6339 19.882 79.8899 19.882C79.1459 19.882 78.6059 20.242 78.2699 20.962C77.9339 21.67 77.7659 22.594 77.7659 23.734C77.7659 24.886 77.9339 25.822 78.2699 26.542C78.6059 27.25 79.1459 27.604 79.8899 27.604Z" fill="#7A7C79"/>
<g clip-path="url(#clip0_213_415)">
<path d="M19.1372 8.3971L3.39716 11.967L6.96703 27.707L22.7071 24.1372L19.1372 8.3971Z" fill="white" fill-opacity="0.01"/>
<path d="M20.2933 22.6159L19.1719 21.1463M19.1719 21.1463L16.3312 17.3083L15.4242 21.9962M19.1719 21.1463L15.4242 21.9962M15.0466 23.8058L15.4242 21.9962" stroke="#407E59" stroke-width="1.22838" stroke-linecap="round" stroke-linejoin="round"/>
<path d="M9.08997 12.7445L9.641 13.6539" stroke="#407E59" stroke-width="1.22838" stroke-linecap="round" stroke-linejoin="round"/>
<path d="M6.18268 15.1278L13.3969 13.4916" stroke="#407E59" stroke-width="1.22838" stroke-linecap="round" stroke-linejoin="round"/>
<path d="M7.86615 16.4699C7.86615 16.4699 8.9186 18.3899 10.6443 19.1978C12.3699 20.0056 14.9586 20.3779 14.9586 20.3779" stroke="#407E59" stroke-width="1.22838" stroke-linecap="round" stroke-linejoin="round"/>
<path d="M12.0852 13.7891C12.0852 13.7891 12.1095 16.6169 10.9821 18.4466C9.85461 20.2763 7.7445 22.0141 7.7445 22.0141" stroke="#407E59" stroke-width="1.22838" stroke-linecap="round" stroke-linejoin="round"/>
</g>
<defs>
<clipPath id="clip0_213_415">
<rect width="16.1398" height="16.1398" fill="white" transform="translate(3.39716 11.967) rotate(-12.7786)"/>
</clipPath>
</defs>
</svg>
